<svg xmlns="http://www.w3.org/2000/svg" xmlns:xlink="http://www.w3.org/1999/xlink" width="500" zoomAndPan="magnify" viewBox="0 0 375 374.999991" height="500" preserveAspectRatio="xMidYMid meet" version="1.0"><defs><clipPath id="cb5ae9e491"><path d="M 16 67 L 340 67 L 340 280 L 16 280 Z M 16 67 " clip-rule="nonzero"/></clipPath><clipPath id="353162162a"><path d="M 50.699219 22.128906 L 374.726562 92.121094 L 324.050781 326.710938 L 0.0273438 256.71875 Z M 50.699219 22.128906 " clip-rule="nonzero"/></clipPath><clipPath id="29de9f43fd"><path d="M 50.699219 22.128906 L 374.726562 92.121094 L 324.050781 326.710938 L 0.0273438 256.71875 Z M 50.699219 22.128906 " clip-rule="nonzero"/></clipPath><clipPath id="f237713908"><path d="M 50.808594 22.152344 L 374.84375 92.148438 L 324.171875 326.734375 L 0.136719 256.742188 Z M 50.808594 22.152344 " clip-rule="nonzero"/></clipPath><clipPath id="85ffcf4d38"><path d="M 50.808594 22.152344 L 374.632812 92.101562 L 323.960938 326.683594 L 0.136719 256.734375 Z M 50.808594 22.152344 " clip-rule="nonzero"/></clipPath><clipPath id="33431e58e0"><path d="M 155 219 L 210 219 L 210 245 L 155 245 Z M 155 219 " clip-rule="nonzero"/></clipPath><clipPath id="be0f88cd47"><path d="M 50.699219 22.128906 L 374.726562 92.121094 L 324.050781 326.710938 L 0.0273438 256.71875 Z M 50.699219 22.128906 " clip-rule="nonzero"/></clipPath><clipPath id="5b106dc0a8"><path d="M 50.699219 22.128906 L 374.726562 92.121094 L 324.050781 326.710938 L 0.0273438 256.71875 Z M 50.699219 22.128906 " clip-rule="nonzero"/></clipPath><clipPath id="aabfd0afac"><path d="M 174 227 L 179 227 L 179 237 L 174 237 Z M 174 227 " clip-rule="nonzero"/></clipPath><clipPath id="0d11c51dbd"><path d="M 50.699219 22.128906 L 374.726562 92.121094 L 324.050781 326.710938 L 0.0273438 256.71875 Z M 50.699219 22.128906 " clip-rule="nonzero"/></clipPath><clipPath id="fd627d7090"><path d="M 50.699219 22.128906 L 374.726562 92.121094 L 324.050781 326.710938 L 0.0273438 256.71875 Z M 50.699219 22.128906 " clip-rule="nonzero"/></clipPath><clipPath id="3c34d3ba10"><path d="M 195 221 L 200 221 L 200 230 L 195 230 Z M 195 221 " clip-rule="nonzero"/></clipPath><clipPath id="692c7592b7"><path d="M 50.699219 22.128906 L 374.726562 92.121094 L 324.050781 326.710938 L 0.0273438 256.71875 Z M 50.699219 22.128906 " clip-rule="nonzero"/></clipPath><clipPath id="8ad8ed60c8"><path d="M 50.699219 22.128906 L 374.726562 92.121094 L 324.050781 326.710938 L 0.0273438 256.71875 Z M 50.699219 22.128906 " clip-rule="nonzero"/></clipPath><clipPath id="1d48740496"><path d="M 150 238 L 154 238 L 154 247 L 150 247 Z M 150 238 " clip-rule="nonzero"/></clipPath><clipPath id="a5141e3d22"><path d="M 50.699219 22.128906 L 374.726562 92.121094 L 324.050781 326.710938 L 0.0273438 256.71875 Z M 50.699219 22.128906 " clip-rule="nonzero"/></clipPath><clipPath id="6fbdf581a0"><path d="M 50.699219 22.128906 L 374.726562 92.121094 L 324.050781 326.710938 L 0.0273438 256.71875 Z M 50.699219 22.128906 " clip-rule="nonzero"/></clipPath><clipPath id="fb8c59f180"><path d="M 204 220 L 208 220 L 208 228 L 204 228 Z M 204 220 " clip-rule="nonzero"/></clipPath><clipPath id="0953af1f4e"><path d="M 50.699219 22.128906 L 374.726562 92.121094 L 324.050781 326.710938 L 0.0273438 256.71875 Z M 50.699219 22.128906 " clip-rule="nonzero"/></clipPath><clipPath id="3a7fd098de"><path d="M 50.699219 22.128906 L 374.726562 92.121094 L 324.050781 326.710938 L 0.0273438 256.71875 Z M 50.699219 22.128906 " clip-rule="nonzero"/></clipPath><clipPath id="63db716a5f"><path d="M 152 235 L 156 235 L 156 243 L 152 243 Z M 152 235 " clip-rule="nonzero"/></clipPath><clipPath id="30f4447526"><path d="M 50.699219 22.128906 L 374.726562 92.121094 L 324.050781 326.710938 L 0.0273438 256.71875 Z M 50.699219 22.128906 " clip-rule="nonzero"/></clipPath><clipPath id="39289baab4"><path d="M 50.699219 22.128906 L 374.726562 92.121094 L 324.050781 326.710938 L 0.0273438 256.71875 Z M 50.699219 22.128906 " clip-rule="nonzero"/></clipPath><clipPath id="4f5392bbc9"><path d="M 180 226 L 182 226 L 182 229 L 180 229 Z M 180 226 " clip-rule="nonzero"/></clipPath><clipPath id="32ebc11e62"><path d="M 50.699219 22.128906 L 374.726562 92.121094 L 324.050781 326.710938 L 0.0273438 256.71875 Z M 50.699219 22.128906 " clip-rule="nonzero"/></clipPath><clipPath id="9917dce007"><path d="M 50.699219 22.128906 L 374.726562 92.121094 L 324.050781 326.710938 L 0.0273438 256.71875 Z M 50.699219 22.128906 " clip-rule="nonzero"/></clipPath><clipPath id="6727b42d6f"><path d="M 155 242 L 158 242 L 158 245 L 155 245 Z M 155 242 " clip-rule="nonzero"/></clipPath><clipPath id="facbcc11b4"><path d="M 50.699219 22.128906 L 374.726562 92.121094 L 324.050781 326.710938 L 0.0273438 256.71875 Z M 50.699219 22.128906 " clip-rule="nonzero"/></clipPath><clipPath id="cfdd0083ea"><path d="M 50.699219 22.128906 L 374.726562 92.121094 L 324.050781 326.710938 L 0.0273438 256.71875 Z M 50.699219 22.128906 " clip-rule="nonzero"/></clipPath><clipPath id="718535f058"><path d="M 200 153 L 233 153 L 233 169 L 200 169 Z M 200 153 " clip-rule="nonzero"/></clipPath><clipPath id="4b958f1527"><path d="M 50.699219 22.128906 L 374.726562 92.121094 L 324.050781 326.710938 L 0.0273438 256.71875 Z M 50.699219 22.128906 " clip-rule="nonzero"/></clipPath><clipPath id="895f60b3cc"><path d="M 50.699219 22.128906 L 374.726562 92.121094 L 324.050781 326.710938 L 0.0273438 256.71875 Z M 50.699219 22.128906 " clip-rule="nonzero"/></clipPath><clipPath id="f75525cc7f"><path d="M 206 148 L 234 148 L 234 162 L 206 162 Z M 206 148 " clip-rule="nonzero"/></clipPath><clipPath id="82f71eb6a1"><path d="M 50.699219 22.128906 L 374.726562 92.121094 L 324.050781 326.710938 L 0.0273438 256.71875 Z M 50.699219 22.128906 " clip-rule="nonzero"/></clipPath><clipPath id="9268a88e86"><path d="M 50.699219 22.128906 L 374.726562 92.121094 L 324.050781 326.710938 L 0.0273438 256.71875 Z M 50.699219 22.128906 " clip-rule="nonzero"/></clipPath><clipPath id="db13707482"><path d="M 201 164 L 229 164 L 229 180 L 201 180 Z M 201 164 " clip-rule="nonzero"/></clipPath><clipPath id="a3f3b5d08e"><path d="M 50.699219 22.128906 L 374.726562 92.121094 L 324.050781 326.710938 L 0.0273438 256.71875 Z M 50.699219 22.128906 " clip-rule="nonzero"/></clipPath><clipPath id="ad85dcad4a"><path d="M 50.699219 22.128906 L 374.726562 92.121094 L 324.050781 326.710938 L 0.0273438 256.71875 Z M 50.699219 22.128906 " clip-rule="nonzero"/></clipPath><clipPath id="d9c02df21a"><path d="M 203 159 L 229 159 L 229 173 L 203 173 Z M 203 159 " clip-rule="nonzero"/></clipPath><clipPath id="39f68f88e7"><path d="M 50.699219 22.128906 L 374.726562 92.121094 L 324.050781 326.710938 L 0.0273438 256.71875 Z M 50.699219 22.128906 " clip-rule="nonzero"/></clipPath><clipPath id="1f6f2d3926"><path d="M 50.699219 22.128906 L 374.726562 92.121094 L 324.050781 326.710938 L 0.0273438 256.71875 Z M 50.699219 22.128906 " clip-rule="nonzero"/></clipPath><clipPath id="a430c03e79"><path d="M 204 177 L 225 177 L 225 190 L 204 190 Z M 204 177 " clip-rule="nonzero"/></clipPath><clipPath id="05122e5c45"><path d="M 50.699219 22.128906 L 374.726562 92.121094 L 324.050781 326.710938 L 0.0273438 256.71875 Z M 50.699219 22.128906 " clip-rule="nonzero"/></clipPath><clipPath id="e9d68f05ef"><path d="M 50.699219 22.128906 L 374.726562 92.121094 L 324.050781 326.710938 L 0.0273438 256.71875 Z M 50.699219 22.128906 " clip-rule="nonzero"/></clipPath><clipPath id="f0608c3056"><path d="M 218 136 L 240 136 L 240 147 L 218 147 Z M 218 136 " clip-rule="nonzero"/></clipPath><clipPath id="5b9d1cb156"><path d="M 50.699219 22.128906 L 374.726562 92.121094 L 324.050781 326.710938 L 0.0273438 256.71875 Z M 50.699219 22.128906 " clip-rule="nonzero"/></clipPath><clipPath id="da39534baa"><path d="M 50.699219 22.128906 L 374.726562 92.121094 L 324.050781 326.710938 L 0.0273438 256.71875 Z M 50.699219 22.128906 " clip-rule="nonzero"/></clipPath><clipPath id="be46cc028b"><path d="M 206 185 L 223 185 L 223 195 L 206 195 Z M 206 185 " clip-rule="nonzero"/></clipPath><clipPath id="a5e46a7511"><path d="M 50.699219 22.128906 L 374.726562 92.121094 L 324.050781 326.710938 L 0.0273438 256.71875 Z M 50.699219 22.128906 " clip-rule="nonzero"/></clipPath><clipPath id="c4b967421f"><path d="M 50.699219 22.128906 L 374.726562 92.121094 L 324.050781 326.710938 L 0.0273438 256.71875 Z M 50.699219 22.128906 " clip-rule="nonzero"/></clipPath><clipPath id="198e64e4b1"><path d="M 208 169 L 227 169 L 227 180 L 208 180 Z M 208 169 " clip-rule="nonzero"/></clipPath><clipPath id="982da1848c"><path d="M 50.699219 22.128906 L 374.726562 92.121094 L 324.050781 326.710938 L 0.0273438 256.71875 Z M 50.699219 22.128906 " clip-rule="nonzero"/></clipPath><clipPath id="5c8a921c0e"><path d="M 50.699219 22.128906 L 374.726562 92.121094 L 324.050781 326.710938 L 0.0273438 256.71875 Z M 50.699219 22.128906 " clip-rule="nonzero"/></clipPath><clipPath id="5e96b87072"><path d="M 207 189 L 221 189 L 221 198 L 207 198 Z M 207 189 " clip-rule="nonzero"/></clipPath><clipPath id="a4f5309ebb"><path d="M 50.699219 22.128906 L 374.726562 92.121094 L 324.050781 326.710938 L 0.0273438 256.71875 Z M 50.699219 22.128906 " clip-rule="nonzero"/></clipPath><clipPath id="cb3bf81175"><path d="M 50.699219 22.128906 L 374.726562 92.121094 L 324.050781 326.710938 L 0.0273438 256.71875 Z M 50.699219 22.128906 " clip-rule="nonzero"/></clipPath><clipPath id="1a7924a647"><path d="M 208 194 L 221 194 L 221 202 L 208 202 Z M 208 194 " clip-rule="nonzero"/></clipPath><clipPath id="f585cf274d"><path d="M 50.699219 22.128906 L 374.726562 92.121094 L 324.050781 326.710938 L 0.0273438 256.71875 Z M 50.699219 22.128906 " clip-rule="nonzero"/></clipPath><clipPath id="1e18559477"><path d="M 50.699219 22.128906 L 374.726562 92.121094 L 324.050781 326.710938 L 0.0273438 256.71875 Z M 50.699219 22.128906 " clip-rule="nonzero"/></clipPath><clipPath id="17b702a0ab"><path d="M 209 176 L 221 176 L 221 183 L 209 183 Z M 209 176 " clip-rule="nonzero"/></clipPath><clipPath id="41c66ef576"><path d="M 50.699219 22.128906 L 374.726562 92.121094 L 324.050781 326.710938 L 0.0273438 256.71875 Z M 50.699219 22.128906 " clip-rule="nonzero"/></clipPath><clipPath id="ed0a5a74f1"><path d="M 50.699219 22.128906 L 374.726562 92.121094 L 324.050781 326.710938 L 0.0273438 256.71875 Z M 50.699219 22.128906 " clip-rule="nonzero"/></clipPath><clipPath id="6e40dbe27a"><path d="M 210 182 L 221 182 L 221 190 L 210 190 Z M 210 182 " clip-rule="nonzero"/></clipPath><clipPath id="c0d92d7400"><path d="M 50.699219 22.128906 L 374.726562 92.121094 L 324.050781 326.710938 L 0.0273438 256.71875 Z M 50.699219 22.128906 " clip-rule="nonzero"/></clipPath><clipPath id="81a739b916"><path d="M 50.699219 22.128906 L 374.726562 92.121094 L 324.050781 326.710938 L 0.0273438 256.71875 Z M 50.699219 22.128906 " clip-rule="nonzero"/></clipPath><clipPath id="f74b1c962b"><path d="M 203 182 L 210 182 L 210 186 L 203 186 Z M 203 182 " clip-rule="nonzero"/></clipPath><clipPath id="0c866a769e"><path d="M 50.699219 22.128906 L 374.726562 92.121094 L 324.050781 326.710938 L 0.0273438 256.71875 Z M 50.699219 22.128906 " clip-rule="nonzero"/></clipPath><clipPath id="992beb9f25"><path d="M 50.699219 22.128906 L 374.726562 92.121094 L 324.050781 326.710938 L 0.0273438 256.71875 Z M 50.699219 22.128906 " clip-rule="nonzero"/></clipPath><clipPath id="77c94796d7"><path d="M 203 179 L 209 179 L 209 183 L 203 183 Z M 203 179 " clip-rule="nonzero"/></clipPath><clipPath id="84bc5b3741"><path d="M 50.699219 22.128906 L 374.726562 92.121094 L 324.050781 326.710938 L 0.0273438 256.71875 Z M 50.699219 22.128906 " clip-rule="nonzero"/></clipPath><clipPath id="6cc833f940"><path d="M 50.699219 22.128906 L 374.726562 92.121094 L 324.050781 326.710938 L 0.0273438 256.71875 Z M 50.699219 22.128906 " clip-rule="nonzero"/></clipPath><clipPath id="fb684246ac"><path d="M 220 174 L 224 174 L 224 177 L 220 177 Z M 220 174 " clip-rule="nonzero"/></clipPath><clipPath id="4ed2f50dfa"><path d="M 50.699219 22.128906 L 374.726562 92.121094 L 324.050781 326.710938 L 0.0273438 256.71875 Z M 50.699219 22.128906 " clip-rule="nonzero"/></clipPath><clipPath id="a0f633372a"><path d="M 50.699219 22.128906 L 374.726562 92.121094 L 324.050781 326.710938 L 0.0273438 256.71875 Z M 50.699219 22.128906 " clip-rule="nonzero"/></clipPath><clipPath id="645e0e2742"><path d="M 206 189 L 210 189 L 210 192 L 206 192 Z M 206 189 " clip-rule="nonzero"/></clipPath><clipPath id="d7607659f3"><path d="M 50.699219 22.128906 L 374.726562 92.121094 L 324.050781 326.710938 L 0.0273438 256.71875 Z M 50.699219 22.128906 " clip-rule="nonzero"/></clipPath><clipPath id="c35fcf9239"><path d="M 50.699219 22.128906 L 374.726562 92.121094 L 324.050781 326.710938 L 0.0273438 256.71875 Z M 50.699219 22.128906 " clip-rule="nonzero"/></clipPath><clipPath id="4e961bb069"><path d="M 200 172 L 204 172 L 204 175 L 200 175 Z M 200 172 " clip-rule="nonzero"/></clipPath><clipPath id="de7bc2bf18"><path d="M 50.699219 22.128906 L 374.726562 92.121094 L 324.050781 326.710938 L 0.0273438 256.71875 Z M 50.699219 22.128906 " clip-rule="nonzero"/></clipPath><clipPath id="195e3ddebd"><path d="M 50.699219 22.128906 L 374.726562 92.121094 L 324.050781 326.710938 L 0.0273438 256.71875 Z M 50.699219 22.128906 " clip-rule="nonzero"/></clipPath><clipPath id="fe489fc015"><path d="M 228 158 L 231 158 L 231 160 L 228 160 Z M 228 158 " clip-rule="nonzero"/></clipPath><clipPath id="535e5c303e"><path d="M 50.699219 22.128906 L 374.726562 92.121094 L 324.050781 326.710938 L 0.0273438 256.71875 Z M 50.699219 22.128906 " clip-rule="nonzero"/></clipPath><clipPath id="e3f8fe9416"><path d="M 50.699219 22.128906 L 374.726562 92.121094 L 324.050781 326.710938 L 0.0273438 256.71875 Z M 50.699219 22.128906 " clip-rule="nonzero"/></clipPath><clipPath id="056a5d2e9c"><path d="M 106 223 L 114 223 L 114 229 L 106 229 Z M 106 223 " clip-rule="nonzero"/></clipPath><clipPath id="d3ff974747"><path d="M 50.699219 22.128906 L 374.726562 92.121094 L 324.050781 326.710938 L 0.0273438 256.71875 Z M 50.699219 22.128906 " clip-rule="nonzero"/></clipPath><clipPath id="c1a58ef88e"><path d="M 50.699219 22.128906 L 374.726562 92.121094 L 324.050781 326.710938 L 0.0273438 256.71875 Z M 50.699219 22.128906 " clip-rule="nonzero"/></clipPath><clipPath id="49e34af39a"><path d="M 106 236 L 111 236 L 111 239 L 106 239 Z M 106 236 " clip-rule="nonzero"/></clipPath><clipPath id="f12002df21"><path d="M 50.699219 22.128906 L 374.726562 92.121094 L 324.050781 326.710938 L 0.0273438 256.71875 Z M 50.699219 22.128906 " clip-rule="nonzero"/></clipPath><clipPath id="7530df2938"><path d="M 50.699219 22.128906 L 374.726562 92.121094 L 324.050781 326.710938 L 0.0273438 256.71875 Z M 50.699219 22.128906 " clip-rule="nonzero"/></clipPath><clipPath id="69c0f29e79"><path d="M 105 234 L 109 234 L 109 237 L 105 237 Z M 105 234 " clip-rule="nonzero"/></clipPath><clipPath id="e779d97ee6"><path d="M 50.699219 22.128906 L 374.726562 92.121094 L 324.050781 326.710938 L 0.0273438 256.71875 Z M 50.699219 22.128906 " clip-rule="nonzero"/></clipPath><clipPath id="d4ca8f38a9"><path d="M 50.699219 22.128906 L 374.726562 92.121094 L 324.050781 326.710938 L 0.0273438 256.71875 Z M 50.699219 22.128906 " clip-rule="nonzero"/></clipPath><clipPath id="46142c9de3"><path d="M 102 239 L 106 239 L 106 242 L 102 242 Z M 102 239 " clip-rule="nonzero"/></clipPath><clipPath id="8f97c9b23e"><path d="M 50.699219 22.128906 L 374.726562 92.121094 L 324.050781 326.710938 L 0.0273438 256.71875 Z M 50.699219 22.128906 " clip-rule="nonzero"/></clipPath><clipPath id="1b5d115a39"><path d="M 50.699219 22.128906 L 374.726562 92.121094 L 324.050781 326.710938 L 0.0273438 256.71875 Z M 50.699219 22.128906 " clip-rule="nonzero"/></clipPath><clipPath id="4fd4056854"><path d="M 120 114 L 142 114 L 142 124 L 120 124 Z M 120 114 " clip-rule="nonzero"/></clipPath><clipPath id="8114448dc4"><path d="M 50.699219 22.128906 L 374.726562 92.121094 L 324.050781 326.710938 L 0.0273438 256.71875 Z M 50.699219 22.128906 " clip-rule="nonzero"/></clipPath><clipPath id="9a4aa9c9f0"><path d="M 50.699219 22.128906 L 374.726562 92.121094 L 324.050781 326.710938 L 0.0273438 256.71875 Z M 50.699219 22.128906 " clip-rule="nonzero"/></clipPath><clipPath id="a54654256f"><path d="M 222 124 L 244 124 L 244 135 L 222 135 Z M 222 124 " clip-rule="nonzero"/></clipPath><clipPath id="80ea586272"><path d="M 50.699219 22.128906 L 374.726562 92.121094 L 324.050781 326.710938 L 0.0273438 256.71875 Z M 50.699219 22.128906 " clip-rule="nonzero"/></clipPath><clipPath id="0329b30a32"><path d="M 50.699219 22.128906 L 374.726562 92.121094 L 324.050781 326.710938 L 0.0273438 256.71875 Z M 50.699219 22.128906 " clip-rule="nonzero"/></clipPath><clipPath id="6ca17b7748"><path d="M 103 251 L 106 251 L 106 253 L 103 253 Z M 103 251 " clip-rule="nonzero"/></clipPath><clipPath id="d8ecbbd51d"><path d="M 50.699219 22.128906 L 374.726562 92.121094 L 324.050781 326.710938 L 0.0273438 256.71875 Z M 50.699219 22.128906 " clip-rule="nonzero"/></clipPath><clipPath id="6989679b55"><path d="M 50.699219 22.128906 L 374.726562 92.121094 L 324.050781 326.710938 L 0.0273438 256.71875 Z M 50.699219 22.128906 " clip-rule="nonzero"/></clipPath><clipPath id="301883a919"><path d="M 236 108 L 248 108 L 248 114 L 236 114 Z M 236 108 " clip-rule="nonzero"/></clipPath><clipPath id="bc2bdaa662"><path d="M 50.699219 22.128906 L 374.726562 92.121094 L 324.050781 326.710938 L 0.0273438 256.71875 Z M 50.699219 22.128906 " clip-rule="nonzero"/></clipPath><clipPath id="a00f3bd7f6"><path d="M 50.699219 22.128906 L 374.726562 92.121094 L 324.050781 326.710938 L 0.0273438 256.71875 Z M 50.699219 22.128906 " clip-rule="nonzero"/></clipPath><clipPath id="aa7294714b"><path d="M 111 219 L 116 219 L 116 223 L 111 223 Z M 111 219 " clip-rule="nonzero"/></clipPath><clipPath id="759164683d"><path d="M 50.699219 22.128906 L 374.726562 92.121094 L 324.050781 326.710938 L 0.0273438 256.71875 Z M 50.699219 22.128906 " clip-rule="nonzero"/></clipPath><clipPath id="5f7a3ff089"><path d="M 50.699219 22.128906 L 374.726562 92.121094 L 324.050781 326.710938 L 0.0273438 256.71875 Z M 50.699219 22.128906 " clip-rule="nonzero"/></clipPath></defs><g clip-path="url(#cb5ae9e491)"><g clip-path="url(#353162162a)"><g clip-path="url(#29de9f43fd)"><g clip-path="url(#f237713908)"><g clip-path="url(#85ffcf4d38)"><path fill="#1096dc" d="M 216.113281 230.988281 C 216.953125 231.171875 217.589844 231.324219 218.230469 231.445312 C 231.722656 233.964844 245.21875 236.460938 258.707031 239.007812 C 278.566406 242.757812 298.421875 246.542969 318.277344 250.320312 C 324.5625 251.511719 330.847656 252.730469 337.140625 253.902344 C 338.417969 254.140625 339.476562 254.445312 339.140625 256.425781 C 338.394531 256.585938 337.535156 256.828125 336.664062 256.957031 C 311.777344 260.609375 286.894531 264.273438 262 267.886719 C 244.097656 270.484375 226.183594 272.980469 208.285156 275.582031 C 205.226562 276.027344 202.449219 275.757812 199.570312 274.421875 C 191.484375 270.667969 183.28125 267.171875 175.28125 263.644531 C 174.261719 263.96875 173.414062 264.347656 172.53125 264.492188 C 152.097656 267.890625 131.914062 272.476562 111.761719 277.199219 C 109.140625 277.8125 106.519531 278.421875 103.640625 279.09375 C 103.449219 278.175781 103.207031 277.3125 103.085938 276.429688 C 101.386719 264.4375 99.703125 252.4375 98.042969 240.433594 C 97.921875 239.566406 97.800781 238.9375 96.910156 238.40625 C 91.136719 234.964844 85.367188 231.503906 79.691406 227.90625 C 59.101562 214.851562 39.878906 199.996094 21.683594 183.789062 C 20.242188 182.5 18.855469 181.148438 17.449219 179.820312 C 17.269531 179.652344 17.136719 179.433594 16.898438 179.136719 C 17.933594 178.203125 18.984375 178.597656 19.984375 178.847656 C 25.699219 180.292969 31.414062 181.734375 37.117188 183.230469 C 46.726562 185.753906 56.332031 188.308594 65.929688 190.875 C 74.472656 193.164062 83.007812 195.457031 91.535156 197.804688 C 100.222656 200.195312 108.886719 202.65625 117.5625 205.082031 C 118.117188 205.234375 118.691406 205.332031 119.53125 205.511719 C 124.722656 178.933594 132.570312 153.082031 139.292969 126.425781 C 137.386719 127.265625 135.8125 127.960938 134.210938 128.664062 C 135.851562 130.539062 135.671875 131.277344 133.332031 131.855469 C 131.703125 132.261719 130.027344 132.496094 128.359375 132.726562 C 120.59375 133.800781 112.957031 135.464844 105.46875 137.792969 C 105.027344 137.929688 104.542969 137.921875 103.726562 138.023438 C 104.066406 137.320312 104.171875 136.824219 104.472656 136.523438 C 116.175781 124.863281 128.4375 113.832031 141.410156 103.585938 C 143.730469 101.753906 145.710938 101.421875 148.246094 103.035156 C 151.082031 104.835938 154.078125 106.386719 157.042969 107.96875 C 161.167969 110.171875 164.648438 113.21875 168.175781 116.210938 C 168.894531 116.820312 169.027344 117.457031 168.855469 118.414062 C 166.851562 129.605469 164.800781 140.789062 162.992188 152.007812 C 161.425781 161.734375 160.148438 171.511719 158.746094 181.265625 C 158.675781 181.757812 158.625 182.257812 158.546875 182.867188 C 158.9375 182.902344 159.265625 183.007812 159.558594 182.945312 C 169.285156 180.945312 178.996094 178.875 188.734375 176.953125 C 191.140625 176.476562 192.695312 175.375 194.007812 173.257812 C 210.128906 147.3125 226.304688 121.40625 242.542969 95.539062 C 248.175781 86.5625 254.003906 77.707031 259.742188 68.796875 C 259.960938 68.464844 260.21875 68.160156 260.714844 67.496094 C 260.867188 68.324219 261.074219 68.769531 260.996094 69.164062 C 260.734375 70.480469 260.402344 71.789062 260.042969 73.089844 C 257.199219 83.402344 254.351562 93.714844 251.492188 104.019531 C 248.875 113.4375 246.238281 122.84375 243.621094 132.257812 C 241.59375 139.5625 239.585938 146.875 237.5625 154.175781 C 235.738281 160.753906 233.898438 167.320312 232.070312 173.894531 C 230.039062 181.199219 228.027344 188.507812 225.988281 195.8125 C 224.179688 202.304688 222.34375 208.785156 220.523438 215.273438 C 219.074219 220.445312 217.621094 225.613281 216.113281 230.988281 Z M 117.660156 213.160156 C 117.867188 212.464844 118.683594 211.921875 118.105469 210.492188 C 117.574219 211.683594 117.230469 212.449219 116.890625 213.214844 C 115.871094 214.4375 114.847656 215.65625 113.828125 216.878906 C 113.914062 216.960938 114.003906 217.042969 114.089844 217.125 C 114.789062 216.789062 115.488281 216.457031 116.191406 216.121094 C 115.164062 217.050781 114.082031 217.921875 113.132812 218.917969 C 111.949219 220.160156 110.863281 221.488281 109.773438 222.816406 C 109.675781 222.9375 109.890625 223.3125 109.960938 223.570312 C 108.898438 224.738281 107.808594 225.882812 106.800781 227.09375 C 106.640625 227.28125 106.824219 227.757812 106.851562 228.105469 C 105.976562 228.964844 105.011719 229.75 104.25 230.699219 C 102.796875 232.511719 101.4375 234.402344 100.09375 236.300781 C 99.738281 236.804688 99.3125 237.5 99.394531 238.035156 C 99.617188 239.488281 100.089844 240.902344 100.464844 242.335938 C 100.378906 244.824219 100.886719 247.214844 101.332031 249.238281 C 104.097656 247.632812 106.730469 245.960938 109.492188 244.546875 C 111.351562 243.597656 111.804688 242.210938 111.789062 240.039062 C 108.828125 241.871094 106.15625 243.53125 103.480469 245.1875 C 105.660156 243.363281 107.9375 241.695312 110.390625 240.324219 C 112.089844 239.375 112.78125 238.15625 112.585938 236.128906 C 112.144531 236.140625 111.746094 236.148438 111.355469 236.15625 C 112.773438 235.3125 113.777344 234.25 113.433594 232.265625 C 112.457031 232.714844 111.613281 233.101562 110.769531 233.488281 C 111.589844 232.550781 112.640625 232.050781 113.527344 231.339844 C 114.511719 230.554688 114.441406 229.402344 114.414062 228.035156 C 111.488281 229.707031 108.855469 231.207031 106.226562 232.710938 C 106.117188 232.523438 106.015625 232.339844 105.910156 232.15625 C 108.234375 230.742188 110.472656 229.140625 112.917969 227.976562 C 115.109375 226.933594 115.671875 225.335938 115.675781 222.902344 C 115.054688 223.179688 114.644531 223.359375 114.234375 223.542969 C 115.003906 222.5 115.835938 221.496094 116.511719 220.398438 C 116.785156 219.960938 116.589844 219.402344 115.859375 219.414062 C 116.558594 218.355469 117.792969 217.503906 117.320312 215.914062 C 116.820312 216.027344 116.453125 216.113281 116.078125 216.199219 C 116.503906 215.730469 116.9375 215.269531 117.359375 214.796875 C 117.785156 214.316406 118.335938 213.847656 117.660156 213.160156 Z M 249.316406 101.257812 C 250.925781 100.566406 251.300781 99.246094 251.222656 97.640625 C 250.980469 97.667969 250.800781 97.644531 250.675781 97.710938 C 247.179688 99.703125 243.707031 101.742188 240.179688 103.679688 C 239.039062 104.308594 238.582031 105.246094 238.078125 106.679688 C 239.109375 106.105469 239.816406 105.65625 240.566406 105.304688 C 243.5 103.921875 246.453125 102.570312 249.398438 101.207031 C 249.355469 101.359375 249.355469 101.601562 249.261719 101.648438 C 245.730469 103.394531 242.222656 105.195312 238.632812 106.816406 C 237.199219 107.460938 236.4375 108.199219 236.226562 110.1875 C 235.644531 110.761719 234.945312 111.253906 234.503906 111.921875 C 233.027344 114.164062 231.640625 116.460938 230.234375 118.75 C 229.960938 119.199219 229.773438 119.699219 229.484375 120.300781 C 229.878906 120.226562 230.0625 120.234375 230.203125 120.160156 C 235.492188 117.238281 240.753906 114.257812 246.558594 112.40625 C 246.972656 112.273438 247.472656 111.847656 247.59375 111.453125 C 248.242188 109.328125 248.777344 107.171875 249.5 104.472656 C 248.421875 105.054688 247.878906 105.40625 247.296875 105.648438 C 243.589844 107.183594 239.871094 108.695312 236.160156 110.214844 C 237.613281 109.40625 239.023438 108.511719 240.523438 107.808594 C 243.316406 106.5 246.144531 105.265625 248.988281 104.078125 C 249.941406 103.675781 250.15625 102.910156 250.203125 102.09375 C 250.214844 101.832031 249.621094 101.539062 249.316406 101.257812 Z M 112.730469 132.570312 C 113.5625 132.066406 114.335938 131.410156 115.230469 131.085938 C 123.660156 127.996094 132.113281 124.964844 140.550781 121.917969 C 140.789062 120.820312 141.003906 119.832031 141.25 118.6875 C 140.785156 118.839844 140.542969 118.878906 140.332031 118.988281 C 133.035156 122.863281 125.292969 125.667969 117.570312 128.523438 C 116.890625 128.777344 116.140625 128.84375 115.425781 128.996094 C 116.113281 128.570312 116.757812 128.046875 117.492188 127.738281 C 125.09375 124.582031 132.707031 121.46875 140.308594 118.320312 C 140.886719 118.078125 141.714844 117.734375 141.851562 117.269531 C 142.421875 115.3125 142.773438 113.292969 143.25 111.085938 C 142.65625 111.238281 142.328125 111.277344 142.042969 111.402344 C 136.746094 113.757812 131.367188 115.945312 126.210938 118.5625 C 124.03125 119.667969 122.3125 121.679688 120.40625 123.304688 C 120.3125 123.382812 120.457031 123.734375 120.488281 123.957031 L 120.449219 123.890625 C 118.414062 125.375 116.382812 126.863281 114.09375 128.535156 C 114.878906 128.757812 115.191406 128.847656 115.5 128.941406 C 114.859375 129.253906 114.222656 129.574219 113.574219 129.875 C 112.246094 130.5 111.003906 131.210938 110.484375 132.710938 C 109.738281 133.257812 108.996094 133.808594 108.253906 134.355469 C 108.816406 134.710938 109.121094 134.65625 109.421875 134.59375 C 115.328125 133.324219 121.234375 132.066406 127.136719 130.78125 C 127.949219 130.601562 128.761719 130.359375 129.519531 130.023438 C 132.445312 128.742188 135.347656 127.414062 138.253906 126.089844 C 140.0625 125.265625 140.058594 125.253906 139.988281 122.847656 C 131.195312 126.980469 122.027344 129.953125 112.730469 132.570312 Z M 105.417969 251.671875 L 105.324219 251.535156 C 106.628906 250.496094 107.890625 249.402344 109.25 248.4375 C 110.457031 247.582031 110.90625 246.539062 110.628906 244.886719 C 107.449219 246.855469 104.46875 248.703125 101.421875 250.585938 C 102.421875 257.425781 103.40625 264.191406 104.390625 270.957031 C 105.257812 269.417969 106.210938 267.773438 105.929688 266.375 C 105.589844 264.652344 107.78125 263.742188 106.785156 262.0625 C 106.296875 262.261719 105.828125 262.453125 105 262.792969 C 106.089844 261.195312 108.226562 260.710938 107.652344 257.964844 C 106.625 258.878906 105.789062 259.628906 104.953125 260.371094 C 104.816406 260.195312 104.683594 260.019531 104.550781 259.847656 C 105.414062 259.121094 106.304688 258.429688 107.128906 257.660156 C 107.667969 257.160156 108.359375 256.621094 108.535156 255.976562 C 109.140625 253.785156 109.542969 251.539062 110.117188 248.878906 C 108.238281 249.996094 106.828125 250.832031 105.417969 251.671875 Z M 243.792969 124.539062 L 243.8125 124.589844 C 244.136719 123.382812 244.460938 122.167969 244.871094 120.628906 C 241.878906 122.148438 239.367188 123.476562 236.8125 124.710938 C 234.242188 125.953125 231.628906 127.109375 229.027344 128.28125 C 226.886719 129.242188 224.371094 129.75 222.683594 131.21875 C 220.921875 132.753906 219.945312 135.191406 218.640625 137.246094 C 218.238281 137.882812 217.890625 138.558594 217.234375 139.71875 C 218.175781 139.3125 218.484375 139.199219 218.777344 139.054688 C 226.523438 135.207031 234.246094 131.320312 242.027344 127.539062 C 243.421875 126.863281 243.734375 125.847656 243.792969 124.539062 Z M 241.105469 132.070312 C 242.414062 131.230469 242.417969 129.898438 242.617188 128.238281 C 241.847656 128.660156 241.351562 128.921875 240.867188 129.203125 C 233.578125 133.460938 225.964844 137.058594 218.171875 140.265625 C 216.074219 141.128906 215.144531 142.617188 214.304688 144.738281 C 214.871094 144.503906 215.1875 144.402344 215.480469 144.253906 C 221.136719 141.445312 226.769531 138.585938 232.457031 135.835938 C 235.316406 134.457031 238.277344 133.289062 241.1875 132.023438 C 239.710938 132.972656 238.304688 134.066406 236.746094 134.851562 C 231.328125 137.574219 225.863281 140.195312 220.40625 142.835938 C 217.984375 144.003906 215.132812 144.667969 213.214844 146.386719 C 211.226562 148.167969 210.128906 150.945312 208.648438 153.289062 C 207.917969 154.449219 207.203125 155.617188 206.480469 156.78125 C 211.949219 154.167969 217.105469 151.332031 222.296875 148.570312 C 227.507812 145.800781 232.746094 143.074219 238.253906 140.863281 C 237.253906 141.898438 236.152344 142.777344 234.921875 143.40625 C 225.773438 148.066406 216.628906 152.742188 207.410156 157.257812 C 205.066406 158.40625 204.246094 160.367188 203.019531 162.617188 C 203.9375 162.417969 204.433594 162.304688 204.65625 162.257812 C 203.527344 163.242188 201.996094 164.125 201.101562 165.445312 C 198.375 169.472656 195.894531 173.671875 193.355469 177.742188 C 193.402344 178 193.414062 178.171875 193.464844 178.328125 C 196.910156 188.769531 202.476562 198.246094 206.984375 208.203125 C 207.328125 208.960938 207.886719 209.117188 208.605469 209.074219 C 207.453125 209.808594 208.113281 210.660156 208.441406 211.5 C 210.308594 216.28125 212.167969 221.066406 214.03125 225.847656 C 214.257812 226.429688 214.496094 227.007812 214.882812 227.976562 C 216.800781 221.671875 218.316406 215.75 220.011719 209.257812 C 217.964844 210.777344 216.464844 211.886719 214.96875 212.992188 C 214.867188 212.863281 214.765625 212.730469 214.664062 212.601562 C 216.222656 211.390625 217.761719 210.15625 219.34375 208.972656 C 220.726562 207.941406 221.0625 206.566406 221.078125 204.691406 C 217.675781 207.058594 214.558594 209.226562 211.441406 211.394531 C 211.328125 211.234375 211.214844 211.070312 211.101562 210.90625 C 214.191406 208.617188 217.242188 206.265625 220.402344 204.070312 C 221.75 203.136719 222.476562 202.125 222.210938 200.414062 C 217.5625 203.375 213.03125 206.261719 208.5 209.144531 C 209.128906 208.5 209.671875 207.730469 210.402344 207.238281 C 214.152344 204.683594 217.949219 202.191406 221.746094 199.695312 C 222.480469 199.210938 223.339844 198.855469 223.0625 197.496094 C 221.214844 198.503906 219.558594 199.472656 217.851562 200.332031 C 216.21875 201.152344 214.738281 202.339844 212.832031 202.5625 C 215.960938 200.566406 219.167969 198.734375 222.398438 196.949219 C 223.242188 196.484375 223.882812 195.996094 224.160156 194.980469 C 226.414062 186.789062 228.71875 178.613281 231.015625 170.433594 C 232.8125 164.039062 234.621094 157.644531 236.425781 151.25 C 238.070312 145.421875 239.726562 139.597656 241.34375 133.765625 C 241.496094 133.214844 242.066406 132.503906 241.105469 132.070312 Z M 105.515625 276 C 106.082031 275.675781 106.507812 275.457031 106.90625 275.195312 C 111.632812 272.117188 116.351562 269.019531 121.078125 265.941406 C 129.050781 260.742188 136.996094 255.511719 145.027344 250.410156 C 146.199219 249.664062 146.265625 248.75 146.417969 247.6875 C 147.414062 240.769531 148.3125 233.839844 149.429688 226.945312 C 151.621094 213.476562 154.015625 200.042969 156.175781 186.570312 C 157.652344 177.34375 158.851562 168.070312 160.203125 158.824219 C 161.082031 152.824219 161.917969 146.820312 162.9375 140.84375 C 164.257812 133.128906 165.742188 125.445312 167.164062 117.699219 C 161.371094 111.3125 153.644531 107.847656 146.234375 103.53125 C 145.789062 106.207031 145.523438 108.710938 144.9375 111.136719 C 142.910156 119.566406 140.828125 127.988281 138.652344 136.382812 C 135.671875 147.878906 132.554688 159.339844 129.5625 170.832031 C 127.691406 178 125.714844 185.15625 124.203125 192.40625 C 121.039062 207.554688 118.394531 222.808594 114.761719 237.863281 C 112.632812 246.691406 110.808594 255.59375 108.730469 264.433594 C 107.832031 268.242188 106.640625 271.980469 105.515625 276 Z M 335.667969 255.3125 C 335.667969 255.148438 335.671875 254.980469 335.675781 254.8125 C 335.101562 254.6875 334.535156 254.550781 333.957031 254.445312 C 311.867188 250.3125 289.765625 246.21875 267.679688 242.050781 C 250.972656 238.894531 234.28125 235.632812 217.578125 232.449219 C 216.617188 232.265625 215.550781 232.164062 214.621094 232.386719 C 208.816406 233.78125 203 235.148438 197.253906 236.769531 C 181.707031 241.152344 166.195312 245.65625 150.671875 250.125 C 150.578125 250.152344 150.535156 250.371094 150.371094 250.6875 C 152.054688 251.410156 153.734375 252.109375 155.398438 252.84375 C 170.929688 259.71875 186.476562 266.570312 201.976562 273.519531 C 203.976562 274.414062 205.8125 274.640625 207.988281 274.3125 C 249.652344 268.078125 291.332031 261.929688 333.007812 255.757812 C 333.894531 255.625 334.78125 255.460938 335.667969 255.3125 Z M 148.484375 249.554688 C 170.550781 243.847656 191.660156 236.59375 213.414062 231.113281 C 213.105469 229.949219 212.890625 228.976562 212.59375 228.027344 C 209.261719 217.390625 204.914062 207.171875 199.863281 197.25 C 196.953125 191.535156 194.363281 185.695312 192.617188 179.507812 C 192.441406 178.886719 192.214844 178.277344 192.019531 177.6875 C 180.652344 180.03125 169.460938 182.335938 158.09375 184.679688 C 154.84375 206.113281 150.375 227.300781 148.484375 249.554688 Z M 118.445312 207.203125 C 85.765625 197.832031 53.148438 189.375 20.527344 180.742188 C 20.898438 181.324219 21.34375 181.785156 21.828125 182.199219 C 38.453125 196.585938 55.730469 210.125 74.28125 221.960938 C 81.507812 226.574219 88.867188 230.980469 96.1875 235.449219 C 98.109375 236.621094 98.621094 236.46875 99.710938 234.859375 C 105.371094 226.5 111.039062 218.144531 116.707031 209.789062 C 117.214844 209.039062 117.71875 208.285156 118.445312 207.203125 Z M 159.582031 256.671875 C 158.71875 256.285156 158.050781 255.988281 157.222656 255.617188 C 156.367188 258.097656 155.566406 260.425781 154.765625 262.746094 C 154.601562 262.695312 154.433594 262.644531 154.265625 262.59375 C 154.320312 262.140625 154.320312 261.675781 154.4375 261.242188 C 154.882812 259.617188 155.316406 257.988281 155.851562 256.394531 C 156.265625 255.15625 155.882812 254.648438 154.582031 254.675781 C 153.621094 257.832031 152.976562 261.101562 151.269531 263.945312 C 151.09375 263.882812 150.925781 263.824219 150.753906 263.765625 C 151.671875 260.554688 152.589844 257.339844 153.550781 253.980469 C 152.949219 253.765625 152.449219 253.589844 151.816406 253.363281 C 151.359375 254.875 150.972656 256.242188 150.535156 257.59375 C 150.097656 258.953125 149.605469 260.296875 149.140625 261.648438 C 148.351562 263.957031 148.175781 264.253906 146.765625 265.246094 C 148.21875 260.855469 149.554688 256.824219 150.925781 252.683594 C 150.210938 252.394531 149.558594 252.128906 148.707031 251.777344 C 148.164062 254.296875 147.785156 256.628906 147.136719 258.882812 C 146.472656 261.183594 145.546875 263.410156 144.734375 265.667969 C 144.539062 265.613281 144.34375 265.558594 144.148438 265.503906 C 144.421875 264.238281 144.632812 262.957031 144.976562 261.714844 C 145.839844 258.636719 146.769531 255.574219 147.660156 252.507812 C 147.832031 251.914062 148.277344 251.226562 147.097656 250.824219 C 145.25 256.105469 144.074219 261.605469 141.824219 266.714844 C 141.625 266.652344 141.429688 266.589844 141.234375 266.53125 C 142.589844 261.726562 143.949219 256.917969 145.351562 251.957031 C 143.410156 252.871094 142.011719 253.878906 141.65625 256.265625 C 141.261719 258.90625 140.296875 261.464844 139.554688 264.054688 C 139.0625 265.785156 138.519531 267.503906 137.972656 269.324219 C 149.585938 267.082031 160.964844 264.890625 172.84375 262.597656 C 171.140625 261.871094 169.753906 261.554688 168.730469 260.769531 C 167.660156 259.953125 166.140625 261.011719 165.464844 259.605469 C 164.964844 260.378906 164.535156 261.046875 164.105469 261.714844 C 163.984375 261.671875 163.867188 261.628906 163.753906 261.585938 C 163.894531 260.65625 164.039062 259.730469 164.183594 258.796875 C 163.152344 258.710938 163.152344 258.710938 161.355469 261.242188 C 161.632812 259.949219 161.851562 258.945312 162.097656 257.796875 C 161.542969 257.625 161.039062 257.460938 160.488281 257.289062 C 159.894531 258.652344 159.375 259.84375 158.855469 261.035156 C 158.71875 260.984375 158.585938 260.9375 158.449219 260.886719 C 158.804688 259.5625 159.164062 258.234375 159.582031 256.671875 Z M 223.683594 129.328125 C 223.808594 129.441406 223.933594 129.550781 224.058594 129.65625 C 224.363281 129.535156 224.671875 129.421875 224.96875 129.28125 C 231.363281 126.28125 237.734375 123.234375 244.160156 120.3125 C 245.613281 119.652344 245.617188 118.582031 245.933594 117.066406 C 243.617188 118.183594 241.664062 119.125 239.710938 120.066406 C 237.738281 121.019531 235.785156 122.003906 233.800781 122.917969 C 231.878906 123.796875 230.0625 124.941406 227.941406 125.335938 C 228.109375 124.96875 228.332031 124.722656 228.609375 124.585938 C 233.878906 121.964844 239.105469 119.246094 244.460938 116.8125 C 246.1875 116.027344 246.902344 115.082031 246.824219 113.222656 C 246.496094 113.296875 246.246094 113.308594 246.039062 113.410156 C 240.558594 115.988281 235.082031 118.574219 229.613281 121.175781 C 229.09375 121.425781 228.464844 121.699219 228.171875 122.144531 C 226.625 124.503906 225.171875 126.929688 223.683594 129.328125 Z M 144.949219 103.605469 C 144.769531 103.449219 144.589844 103.292969 144.40625 103.132812 C 142.285156 104.0625 140.773438 105.898438 138.972656 107.28125 C 137.042969 108.761719 135.234375 110.394531 133.363281 111.949219 C 131.621094 113.398438 129.734375 114.691406 128.167969 116.585938 C 133.222656 114.371094 138.054688 112.25 142.894531 110.152344 C 143.9375 109.699219 144.0625 108.929688 143.910156 107.757812 C 141.171875 109.015625 138.578125 110.207031 135.984375 111.402344 C 135.890625 111.199219 135.796875 110.996094 135.703125 110.796875 C 138.5625 109.332031 141.421875 107.867188 144.355469 106.367188 C 144.535156 105.523438 144.742188 104.566406 144.949219 103.605469 Z M 128.425781 263.429688 C 127.148438 263.78125 126.457031 264.484375 125.953125 265.550781 C 125.023438 267.515625 123.960938 269.421875 122.914062 271.328125 C 122.726562 271.671875 122.359375 271.914062 122.074219 272.203125 C 121.976562 272.128906 121.875 272.054688 121.769531 271.980469 C 122.617188 270.078125 123.464844 268.175781 124.3125 266.277344 C 121.957031 267.507812 121.886719 270.1875 119.941406 272.34375 C 120.597656 270.613281 121.054688 269.410156 121.507812 268.210938 C 118.960938 269.386719 118.628906 272.039062 116.769531 274.355469 C 119.742188 273.667969 122.136719 273.117188 124.25 272.628906 C 125.707031 269.421875 127.039062 266.484375 128.425781 263.429688 Z M 252.898438 91.773438 C 250.09375 93.242188 247.351562 94.667969 244.625 96.117188 C 244.339844 96.269531 244.0625 96.519531 243.890625 96.792969 C 242.75 98.617188 241.632812 100.457031 240.394531 102.484375 C 244.320312 100.34375 247.984375 98.371094 251.609375 96.332031 C 251.898438 96.171875 251.929688 95.550781 252.207031 94.816406 C 249.296875 95.941406 247.011719 97.539062 244.34375 98.246094 C 246.605469 96.769531 248.957031 95.488281 251.367188 94.328125 C 252.460938 93.800781 253.148438 93.191406 252.898438 91.773438 Z M 136.652344 269.75 C 138.09375 264.722656 139.460938 259.949219 140.84375 255.117188 C 138.3125 256.253906 138.34375 256.324219 138.007812 257.554688 C 137.324219 260.046875 136.597656 262.535156 135.785156 264.988281 C 135.214844 266.703125 134.464844 268.359375 133.636719 270.457031 C 134.988281 270.140625 135.925781 269.921875 136.652344 269.75 Z M 136.765625 257.679688 C 135.234375 258.375 134.109375 259.074219 133.832031 260.703125 C 133.707031 261.433594 133.332031 262.121094 133.050781 262.820312 C 131.929688 265.582031 130.800781 268.347656 129.597656 271.300781 C 131.195312 271.007812 132.550781 271.125 133.082031 269.226562 C 134.132812 265.453125 135.449219 261.753906 136.765625 257.679688 Z M 132.859375 260.101562 C 131.570312 261.109375 130.417969 261.585938 129.972656 262.433594 C 128.3125 265.585938 126.882812 268.859375 125.238281 272.367188 C 126.636719 272.03125 127.792969 271.75 128.667969 271.539062 C 130.066406 267.726562 131.347656 264.21875 132.859375 260.101562 Z M 115.035156 272.421875 C 113.066406 273.519531 110.992188 274.671875 108.921875 275.824219 C 108.976562 275.957031 109.027344 276.09375 109.078125 276.226562 C 111.550781 275.636719 114.027344 275.039062 116.417969 274.464844 C 117.074219 272.925781 117.660156 271.542969 118.25 270.160156 C 118.109375 270.078125 117.964844 270 117.824219 269.914062 C 116.882812 271.226562 115.941406 272.535156 115 273.84375 C 114.894531 273.796875 114.792969 273.746094 114.6875 273.695312 C 114.828125 273.1875 114.964844 272.679688 115.035156 272.421875 Z M 252.367188 83.15625 C 252.539062 83.296875 252.703125 83.4375 252.871094 83.582031 C 253.96875 82.730469 255.480469 82.097656 256.066406 80.980469 C 256.984375 79.214844 257.277344 77.125 257.839844 75.171875 C 257.683594 75.109375 257.527344 75.050781 257.367188 74.988281 C 255.703125 77.710938 254.035156 80.433594 252.367188 83.15625 Z M 248.328125 89.691406 C 248.4375 89.828125 248.546875 89.964844 248.65625 90.101562 C 250.265625 89.441406 251.871094 88.765625 253.488281 88.125 C 254.503906 87.722656 254.628906 86.972656 254.617188 85.566406 C 252.398438 87.300781 249.71875 87.515625 248.328125 89.691406 Z M 253.746094 89.382812 C 253.617188 89.265625 253.492188 89.152344 253.363281 89.035156 C 251.019531 90.980469 247.480469 91.066406 245.453125 94.308594 C 248.238281 92.976562 250.640625 91.867188 252.996094 90.660156 C 253.367188 90.46875 253.5 89.820312 253.746094 89.382812 Z M 250.824219 86.058594 C 255.132812 84.765625 255.132812 84.765625 255.203125 82.953125 C 253.648438 83.9375 251.859375 84.40625 250.824219 86.058594 " fill-opacity="1" fill-rule="evenodd"/></g></g></g></g></g><g clip-path="url(#33431e58e0)"><g clip-path="url(#be0f88cd47)"><g clip-path="url(#5b106dc0a8)"><path fill="#1096dc" d="M 199.199219 229.371094 C 200.273438 230.667969 200.273438 230.667969 201.742188 229.980469 C 200.324219 226.808594 198.898438 223.628906 197.476562 220.449219 C 197.664062 220.363281 197.84375 220.277344 198.03125 220.191406 C 199.550781 223.390625 201.070312 226.59375 202.574219 229.765625 C 202.78125 229.808594 202.953125 229.902344 203.09375 229.867188 C 203.652344 229.734375 204.203125 229.558594 204.949219 229.34375 C 204.21875 227.59375 203.503906 226 202.878906 224.371094 C 202.296875 222.851562 201.804688 221.296875 201.269531 219.757812 C 201.429688 219.699219 201.589844 219.640625 201.746094 219.578125 C 202.410156 221.089844 203.101562 222.589844 203.734375 224.113281 C 204.375 225.664062 204.964844 227.238281 205.648438 228.992188 C 206.375 228.863281 207.070312 228.742188 207.753906 228.621094 C 207.773438 228.046875 207.789062 227.628906 207.800781 227.21875 L 207.957031 227.128906 C 208.304688 227.585938 208.652344 228.046875 209.1875 228.75 C 206.636719 229.613281 204.238281 230.167969 202.082031 231.226562 C 200.078125 232.210938 197.292969 231.554688 195.953125 233.777344 C 195.324219 233.714844 194.539062 233.402344 193.933594 233.617188 C 190.28125 234.890625 186.488281 235.65625 182.789062 236.75 C 179.082031 237.851562 175.359375 238.914062 171.632812 239.957031 C 168.628906 240.796875 165.609375 241.578125 162.601562 242.410156 C 161.832031 242.621094 160.699219 242.554688 161.171875 244.097656 C 159.320312 242.175781 159.019531 239.632812 157.878906 237.519531 C 156.65625 235.25 156.292969 232.769531 155.890625 230.265625 C 156.5 231.621094 157.109375 232.980469 157.78125 234.46875 C 158.457031 234.285156 159.121094 234.203125 159.691406 233.921875 C 160.863281 233.347656 160.804688 233.316406 161.363281 234.710938 C 161.457031 234.949219 162.015625 235.007812 162.355469 235.148438 C 161.847656 235.929688 161.941406 236.582031 162.777344 237.074219 C 162.867188 237.6875 162.953125 238.300781 163.074219 239.152344 C 164.277344 238.804688 165.1875 238.539062 166.246094 238.230469 C 165.90625 237.566406 165.691406 237.140625 165.496094 236.761719 C 164.457031 236.902344 163.5625 237.023438 162.671875 237.140625 C 163.492188 236.6875 164.316406 236.230469 165.660156 235.492188 C 164.699219 235.285156 164.292969 235.195312 163.890625 235.109375 C 163.964844 234.5 164.160156 233.875 164.089844 233.28125 C 163.988281 232.480469 163.6875 231.703125 163.328125 230.40625 C 164.5625 231.234375 164.683594 232.152344 165.042969 232.894531 C 165.433594 233.710938 165.789062 234.546875 166.226562 235.523438 C 166.808594 235.476562 167.453125 235.425781 168.085938 235.382812 C 167.585938 235.792969 167.09375 236.195312 166.621094 236.582031 C 166.703125 237.648438 167.226562 238.109375 168.25 237.945312 C 167.777344 238.398438 167.160156 238.960938 167.765625 239.542969 C 168.089844 239.855469 168.921875 239.820312 169.449219 239.667969 C 169.742188 239.582031 169.878906 238.941406 170.089844 238.554688 C 170.832031 239.195312 171.566406 239.480469 172.324219 238.589844 C 171.3125 237.058594 171.300781 237.058594 170.15625 238.644531 C 169.554688 238.488281 168.953125 238.328125 168.347656 238.167969 C 169.449219 237.117188 168.871094 236.242188 168.054688 235.398438 C 167.464844 233.351562 166.875 231.308594 166.28125 229.265625 C 167.460938 230.410156 167.960938 231.917969 168.546875 233.367188 C 168.867188 234.160156 169.085938 234.972656 170.160156 234.953125 C 169.289062 235.640625 169.371094 236.378906 170.1875 236.976562 C 170.382812 237.121094 171.171875 236.890625 171.246094 236.675781 C 171.523438 235.875 171.285156 235.210938 170.308594 235.058594 C 170.226562 235.042969 170.144531 235.027344 170.0625 235.011719 C 170.734375 234.367188 170.488281 233.683594 170.199219 232.957031 C 169.742188 231.832031 169.351562 230.679688 168.933594 229.535156 C 169.148438 229.457031 169.367188 229.378906 169.582031 229.296875 C 170.347656 231.339844 171.167969 233.355469 171.855469 235.421875 C 172.242188 236.59375 172.847656 236.5625 173.894531 235.976562 C 173.15625 233.71875 172.414062 231.453125 171.675781 229.1875 C 171.835938 229.117188 172 229.042969 172.160156 228.972656 C 172.527344 229.863281 172.921875 230.746094 173.257812 231.652344 C 173.605469 232.59375 173.957031 233.546875 174.199219 234.523438 C 174.449219 235.539062 175.136719 235.808594 176.035156 235.859375 L 175.992188 235.773438 C 175.433594 236.222656 174.640625 236.746094 175.292969 237.460938 C 175.554688 237.746094 176.542969 237.410156 177.183594 237.277344 C 177.304688 237.257812 177.34375 236.84375 177.417969 236.613281 L 177.34375 236.644531 C 178.15625 237.289062 178.90625 237.296875 179.761719 236.253906 C 179.390625 235.808594 179.011719 235.351562 178.628906 234.894531 C 178.523438 234.113281 178.515625 233.308594 178.296875 232.558594 C 177.808594 230.894531 177.210938 229.257812 176.914062 227.519531 C 178.691406 230.195312 179.171875 233.390625 180.511719 236.476562 C 182.667969 235.859375 184.8125 235.242188 187.09375 234.585938 C 185.203125 229.417969 182.867188 224.605469 181.820312 219.335938 C 183.179688 220.617188 183.640625 222.351562 184.261719 223.996094 C 184.882812 225.648438 185.472656 227.3125 186.058594 228.980469 C 186.671875 230.71875 187.257812 232.460938 187.898438 234.328125 C 188.804688 234.054688 189.585938 233.824219 190.46875 233.5625 C 189.066406 229.597656 186.90625 226.046875 186.394531 221.914062 C 188.578125 225.417969 189.640625 229.417969 191.304688 233.308594 C 192.398438 233 193.429688 232.710938 194.78125 232.328125 C 193.160156 228.601562 191.601562 225.015625 190.042969 221.429688 C 191.328125 222.054688 191.753906 223.242188 192.253906 224.375 C 192.832031 225.679688 193.375 227.007812 193.941406 228.320312 C 194.46875 229.539062 195.007812 230.753906 195.578125 232.0625 C 196.902344 231.6875 198.019531 231.375 199.210938 231.039062 C 199.132812 230.429688 199.078125 229.953125 199.019531 229.476562 Z M 160.820312 239.996094 C 160.308594 240.730469 160.0625 241.453125 160.980469 242.234375 C 161.910156 242.027344 163.042969 242.113281 163.460938 240.816406 C 164.730469 241.507812 165.8125 240.847656 167.027344 240.34375 C 166.839844 239.871094 166.667969 239.445312 166.4375 238.859375 C 165.21875 239.355469 163.628906 239 163.53125 240.921875 C 162.894531 240.28125 162.203125 239.824219 161.253906 240.28125 C 161.671875 239.664062 162.835938 239.164062 161.964844 238.277344 C 161.074219 237.363281 160.207031 238.171875 159.316406 238.695312 C 159.53125 239.136719 159.636719 239.570312 159.90625 239.832031 C 160.089844 240.011719 160.507812 239.949219 160.820312 239.996094 Z M 174.832031 237.964844 C 174.472656 237.457031 174.269531 236.902344 174.03125 236.890625 C 173.605469 236.863281 173.15625 237.160156 172.714844 237.324219 C 172.917969 237.71875 173.046875 238.347656 173.34375 238.441406 C 173.695312 238.550781 174.1875 238.195312 174.832031 237.964844 Z M 161.824219 236.707031 C 160.222656 235.960938 159.425781 236.289062 158.609375 237.265625 C 159.804688 238.089844 160.546875 237.449219 161.824219 236.707031 Z M 157.71875 235.441406 C 159.148438 236.320312 159.90625 235.855469 160.878906 235.085938 C 159.679688 234.269531 158.894531 234.765625 157.71875 235.441406 " fill-opacity="1" fill-rule="evenodd"/></g></g></g><g clip-path="url(#aabfd0afac)"><g clip-path="url(#0d11c51dbd)"><g clip-path="url(#fd627d7090)"><path fill="#1096dc" d="M 176.035156 235.859375 C 176.035156 235.230469 176.175781 234.558594 176 233.984375 C 175.535156 232.472656 174.914062 231.007812 174.398438 229.511719 C 174.222656 229.007812 174.171875 228.460938 174.0625 227.933594 C 174.234375 227.882812 174.410156 227.832031 174.578125 227.777344 C 175.328125 229.84375 176.070312 231.910156 176.820312 233.976562 C 177.121094 234.800781 177.433594 235.621094 178.5625 234.921875 C 178.15625 235.496094 177.753906 236.070312 177.34375 236.644531 L 177.417969 236.613281 C 176.945312 236.332031 176.46875 236.050781 175.992188 235.773438 L 176.035156 235.859375 " fill-opacity="1" fill-rule="evenodd"/></g></g></g><g clip-path="url(#3c34d3ba10)"><g clip-path="url(#692c7592b7)"><g clip-path="url(#8ad8ed60c8)"><path fill="#1096dc" d="M 199.019531 229.476562 C 197.464844 227.238281 195.832031 223.449219 195.585938 221.117188 C 196.828125 223.851562 198.496094 226.390625 199.199219 229.371094 L 199.019531 229.476562 " fill-opacity="1" fill-rule="evenodd"/></g></g></g><g clip-path="url(#1d48740496)"><g clip-path="url(#a5141e3d22)"><g clip-path="url(#6fbdf581a0)"><path fill="#1096dc" d="M 153.167969 246.171875 C 152.242188 243.761719 151.3125 241.351562 150.382812 238.941406 C 150.601562 238.859375 150.8125 238.78125 151.027344 238.699219 C 152.15625 241.035156 153.101562 243.441406 153.167969 246.171875 " fill-opacity="1" fill-rule="evenodd"/></g></g></g><g clip-path="url(#fb8c59f180)"><g clip-path="url(#0953af1f4e)"><g clip-path="url(#3a7fd098de)"><path fill="#1096dc" d="M 207.800781 227.21875 C 206.335938 225.113281 205.714844 222.667969 204.964844 220.277344 C 206.472656 222.34375 207.472656 224.621094 207.957031 227.128906 L 207.800781 227.21875 " fill-opacity="1" fill-rule="evenodd"/></g></g></g><g clip-path="url(#63db716a5f)"><g clip-path="url(#30f4447526)"><g clip-path="url(#39289baab4)"><path fill="#1096dc" d="M 155.867188 242.847656 C 154.265625 240.789062 153.6875 238.296875 152.863281 235.910156 C 154.140625 238.101562 155.636719 240.203125 155.875 242.84375 L 155.867188 242.847656 " fill-opacity="1" fill-rule="evenodd"/></g></g></g><g clip-path="url(#4f5392bbc9)"><g clip-path="url(#32ebc11e62)"><g clip-path="url(#9917dce007)"><path fill="#1096dc" d="M 180.496094 226.628906 C 180.707031 227.335938 180.917969 228.046875 181.125 228.753906 C 180.996094 228.789062 180.867188 228.828125 180.738281 228.863281 C 180.527344 228.15625 180.316406 227.449219 180.105469 226.738281 C 180.234375 226.703125 180.367188 226.667969 180.496094 226.628906 " fill-opacity="1" fill-rule="evenodd"/></g></g></g><g clip-path="url(#6727b42d6f)"><g clip-path="url(#facbcc11b4)"><g clip-path="url(#cfdd0083ea)"><path fill="#1096dc" d="M 155.875 242.84375 C 156.25 243.417969 156.628906 243.992188 157.003906 244.566406 C 156.828125 244.640625 156.65625 244.71875 156.480469 244.796875 C 156.277344 244.144531 156.070312 243.496094 155.867188 242.847656 L 155.875 242.84375 " fill-opacity="1" fill-rule="evenodd"/></g></g></g><g clip-path="url(#718535f058)"><g clip-path="url(#4b958f1527)"><g clip-path="url(#895f60b3cc)"><path fill="#1096dc" d="M 232.511719 153.390625 C 221.953125 158.347656 211.398438 163.296875 200.804688 168.269531 C 203.613281 165.464844 227.429688 153.976562 232.511719 153.390625 " fill-opacity="1" fill-rule="evenodd"/></g></g></g><g clip-path="url(#f75525cc7f)"><g clip-path="url(#82f71eb6a1)"><g clip-path="url(#9268a88e86)"><path fill="#1096dc" d="M 233.300781 148.859375 C 224.347656 153.097656 215.394531 157.332031 206.4375 161.570312 C 207.550781 159.691406 226.632812 150.402344 233.300781 148.859375 " fill-opacity="1" fill-rule="evenodd"/></g></g></g><g clip-path="url(#db13707482)"><g clip-path="url(#a3f3b5d08e)"><g clip-path="url(#ad85dcad4a)"><path fill="#1096dc" d="M 228.867188 164.492188 C 219.796875 169.40625 210.726562 174.324219 201.441406 179.359375 C 203.007812 177.34375 219.238281 168.296875 228.867188 164.492188 " fill-opacity="1" fill-rule="evenodd"/></g></g></g><g clip-path="url(#d9c02df21a)"><g clip-path="url(#39f68f88e7)"><g clip-path="url(#1f6f2d3926)"><path fill="#1096dc" d="M 228.675781 159.8125 C 227.996094 160.273438 227.359375 160.820312 226.632812 161.191406 C 219.457031 164.839844 212.269531 168.460938 205.074219 172.078125 C 204.644531 172.292969 204.136719 172.351562 203.667969 172.484375 L 203.636719 172.429688 C 204.003906 172.117188 204.328125 171.714844 204.75 171.5 C 212.371094 167.613281 220.007812 163.75 227.648438 159.894531 C 227.929688 159.753906 228.28125 159.757812 228.601562 159.695312 L 228.675781 159.8125 " fill-opacity="1" fill-rule="evenodd"/></g></g></g><g clip-path="url(#a430c03e79)"><g clip-path="url(#05122e5c45)"><g clip-path="url(#e9d68f05ef)"><path fill="#1096dc" d="M 204.296875 188.816406 C 210.824219 184.882812 217.347656 180.949219 223.871094 177.015625 C 223.976562 177.191406 224.082031 177.367188 224.191406 177.539062 C 217.921875 181.925781 211.296875 185.714844 204.574219 189.359375 C 204.480469 189.179688 204.390625 188.996094 204.296875 188.816406 " fill-opacity="1" fill-rule="evenodd"/></g></g></g><g clip-path="url(#f0608c3056)"><g clip-path="url(#5b9d1cb156)"><g clip-path="url(#da39534baa)"><path fill="#1096dc" d="M 239.21875 136.582031 C 232.8125 140.367188 225.992188 143.273438 218.878906 146.402344 C 220.902344 144.429688 233.574219 138.222656 239.21875 136.582031 " fill-opacity="1" fill-rule="evenodd"/></g></g></g><g clip-path="url(#be46cc028b)"><g clip-path="url(#a5e46a7511)"><g clip-path="url(#c4b967421f)"><path fill="#1096dc" d="M 222.246094 185.945312 C 217.34375 189.488281 212.066406 192.375 206.605469 194.941406 C 211.53125 191.441406 216.691406 188.347656 222.246094 185.945312 " fill-opacity="1" fill-rule="evenodd"/></g></g></g><g clip-path="url(#198e64e4b1)"><g clip-path="url(#982da1848c)"><g clip-path="url(#5c8a921c0e)"><path fill="#1096dc" d="M 208.265625 179.609375 C 209.078125 179.046875 209.855469 178.417969 210.714844 177.9375 C 215.464844 175.265625 220.234375 172.628906 225 169.988281 C 225.503906 169.710938 226.035156 169.496094 226.78125 169.558594 C 226.441406 169.804688 226.128906 170.089844 225.769531 170.292969 C 220.351562 173.324219 214.933594 176.34375 209.503906 179.351562 C 209.152344 179.546875 208.734375 179.613281 208.34375 179.738281 L 208.265625 179.609375 " fill-opacity="1" fill-rule="evenodd"/></g></g></g><g clip-path="url(#5e96b87072)"><g clip-path="url(#a4f5309ebb)"><g clip-path="url(#cb3bf81175)"><path fill="#1096dc" d="M 207.71875 198 C 211.738281 194.945312 215.96875 192.238281 220.945312 189.886719 C 219.191406 191.808594 210.457031 197.144531 207.71875 198 " fill-opacity="1" fill-rule="evenodd"/></g></g></g><g clip-path="url(#1a7924a647)"><g clip-path="url(#f585cf274d)"><g clip-path="url(#1e18559477)"><path fill="#1096dc" d="M 220.125 194.597656 C 216.347656 196.925781 212.574219 199.257812 208.796875 201.585938 C 212.019531 198.402344 215.785156 196.070312 219.742188 194.035156 C 219.871094 194.222656 219.996094 194.410156 220.125 194.597656 " fill-opacity="1" fill-rule="evenodd"/></g></g></g><g clip-path="url(#17b702a0ab)"><g clip-path="url(#41c66ef576)"><g clip-path="url(#ed0a5a74f1)"><path fill="#1096dc" d="M 220.4375 176.066406 C 219.664062 176.648438 218.9375 177.320312 218.097656 177.792969 C 215.195312 179.425781 212.25 180.984375 209.320312 182.574219 L 209.191406 182.359375 C 212.738281 179.890625 216.367188 177.574219 220.464844 176.113281 L 220.4375 176.066406 " fill-opacity="1" fill-rule="evenodd"/></g></g></g><g clip-path="url(#6e40dbe27a)"><g clip-path="url(#c0d92d7400)"><g clip-path="url(#81a739b916)"><path fill="#1096dc" d="M 210.546875 188.523438 C 213.84375 186.628906 217.144531 184.730469 220.445312 182.839844 C 220.539062 182.996094 220.628906 183.152344 220.722656 183.3125 C 217.582031 185.453125 214.175781 187.148438 210.890625 189.050781 C 210.777344 188.875 210.660156 188.699219 210.546875 188.523438 " fill-opacity="1" fill-rule="evenodd"/></g></g></g><g clip-path="url(#f74b1c962b)"><g clip-path="url(#0c866a769e)"><g clip-path="url(#992beb9f25)"><path fill="#1096dc" d="M 209.320312 182.574219 C 207.597656 183.65625 205.875 184.742188 204.148438 185.828125 C 204.039062 185.644531 203.929688 185.460938 203.824219 185.28125 C 205.613281 184.304688 207.402344 183.332031 209.191406 182.359375 L 209.320312 182.574219 " fill-opacity="1" fill-rule="evenodd"/></g></g></g><g clip-path="url(#77c94796d7)"><g clip-path="url(#84bc5b3741)"><g clip-path="url(#6cc833f940)"><path fill="#1096dc" d="M 208.34375 179.738281 C 206.886719 180.820312 205.429688 181.902344 203.972656 182.984375 C 203.828125 182.761719 203.683594 182.535156 203.539062 182.304688 C 204.988281 181.207031 206.464844 180.152344 208.265625 179.609375 L 208.34375 179.738281 " fill-opacity="1" fill-rule="evenodd"/></g></g></g><g clip-path="url(#fb684246ac)"><g clip-path="url(#4ed2f50dfa)"><g clip-path="url(#a0f633372a)"><path fill="#1096dc" d="M 220.464844 176.113281 C 221.339844 175.503906 222.210938 174.890625 223.085938 174.28125 C 223.1875 174.464844 223.289062 174.648438 223.390625 174.832031 C 222.40625 175.242188 221.421875 175.65625 220.441406 176.070312 C 220.4375 176.066406 220.464844 176.113281 220.464844 176.113281 " fill-opacity="1" fill-rule="evenodd"/></g></g></g><g clip-path="url(#645e0e2742)"><g clip-path="url(#d7607659f3)"><g clip-path="url(#c35fcf9239)"><path fill="#1096dc" d="M 209.023438 190.085938 C 208.253906 190.515625 207.480469 190.949219 206.710938 191.378906 C 206.640625 191.253906 206.574219 191.132812 206.507812 191.011719 C 207.269531 190.566406 208.035156 190.121094 208.796875 189.679688 C 208.871094 189.8125 208.949219 189.949219 209.023438 190.085938 " fill-opacity="1" fill-rule="evenodd"/></g></g></g><g clip-path="url(#4e961bb069)"><g clip-path="url(#de7bc2bf18)"><g clip-path="url(#195e3ddebd)"><path fill="#1096dc" d="M 203.667969 172.484375 C 202.722656 173.105469 201.78125 173.730469 200.835938 174.355469 C 200.746094 174.199219 200.652344 174.042969 200.558594 173.886719 C 201.535156 173.320312 202.371094 172.515625 203.636719 172.429688 C 203.636719 172.429688 203.667969 172.484375 203.667969 172.484375 " fill-opacity="1" fill-rule="evenodd"/></g></g></g><g clip-path="url(#fe489fc015)"><g clip-path="url(#535e5c303e)"><g clip-path="url(#e3f8fe9416)"><path fill="#1096dc" d="M 228.601562 159.695312 C 229.089844 159.359375 229.578125 159.027344 230.066406 158.695312 C 230.136719 158.832031 230.207031 158.964844 230.277344 159.101562 C 229.746094 159.335938 229.207031 159.574219 228.671875 159.8125 L 228.601562 159.695312 " fill-opacity="1" fill-rule="evenodd"/></g></g></g><g clip-path="url(#056a5d2e9c)"><g clip-path="url(#d3ff974747)"><g clip-path="url(#c1a58ef88e)"><path fill="#1096dc" d="M 106.761719 228.136719 C 108.683594 226.792969 110.597656 225.433594 112.542969 224.128906 C 112.851562 223.921875 113.320312 223.960938 113.71875 223.886719 C 111.398438 225.304688 109.078125 226.71875 106.761719 228.136719 " fill-opacity="1" fill-rule="evenodd"/></g></g></g><g clip-path="url(#49e34af39a)"><g clip-path="url(#f12002df21)"><g clip-path="url(#7530df2938)"><path fill="#1096dc" d="M 110.917969 236.734375 C 109.394531 237.511719 108.152344 238.894531 106.265625 238.875 C 107.816406 238.164062 109.367188 237.449219 110.917969 236.734375 " fill-opacity="1" fill-rule="evenodd"/></g></g></g><g clip-path="url(#69c0f29e79)"><g clip-path="url(#e779d97ee6)"><g clip-path="url(#d4ca8f38a9)"><path fill="#1096dc" d="M 108.851562 234.675781 C 107.796875 235.285156 106.746094 235.890625 105.695312 236.496094 C 105.609375 236.359375 105.523438 236.222656 105.4375 236.089844 C 106.480469 235.476562 107.523438 234.867188 108.5625 234.253906 C 108.660156 234.394531 108.753906 234.535156 108.851562 234.675781 " fill-opacity="1" fill-rule="evenodd"/></g></g></g><g clip-path="url(#46142c9de3)"><g clip-path="url(#8f97c9b23e)"><g clip-path="url(#1b5d115a39)"><path fill="#1096dc" d="M 105.636719 239.734375 C 104.535156 240.203125 103.433594 240.671875 102.328125 241.136719 C 103.433594 240.671875 104.535156 240.203125 105.636719 239.734375 " fill-opacity="1" fill-rule="evenodd"/></g></g></g><g clip-path="url(#4fd4056854)"><g clip-path="url(#8114448dc4)"><g clip-path="url(#9a4aa9c9f0)"><path fill="#1096dc" d="M 120.488281 123.957031 C 127.222656 120.183594 134.234375 117.023438 141.480469 114.378906 C 141.507812 114.367188 141.582031 114.476562 141.8125 114.707031 C 140.425781 115.390625 139.121094 116.082031 137.773438 116.6875 C 132.871094 118.886719 127.964844 121.070312 123.039062 123.210938 C 122.230469 123.5625 121.316406 123.671875 120.449219 123.894531 C 120.449219 123.890625 120.488281 123.957031 120.488281 123.957031 " fill-opacity="1" fill-rule="evenodd"/></g></g></g><g clip-path="url(#a54654256f)"><g clip-path="url(#80ea586272)"><g clip-path="url(#0329b30a32)"><path fill="#1096dc" d="M 243.792969 124.539062 C 241.171875 125.828125 238.539062 127.089844 235.9375 128.414062 C 231.527344 130.652344 227.136719 132.925781 222.523438 134.90625 C 223.074219 134.503906 223.601562 134.066406 224.179688 133.707031 C 229.589844 130.3125 235.027344 126.960938 241.035156 124.695312 C 241.902344 124.371094 242.832031 123.554688 243.804688 124.578125 C 243.8125 124.589844 243.792969 124.539062 243.792969 124.539062 " fill-opacity="1" fill-rule="evenodd"/></g></g></g><g clip-path="url(#6ca17b7748)"><g clip-path="url(#d8ecbbd51d)"><g clip-path="url(#6989679b55)"><path fill="#1096dc" d="M 105.417969 251.671875 C 105.203125 251.910156 105.019531 252.183594 104.765625 252.378906 C 104.46875 252.601562 104.113281 252.753906 103.570312 252.601562 C 104.152344 252.246094 104.738281 251.890625 105.328125 251.535156 C 105.324219 251.535156 105.417969 251.671875 105.417969 251.671875 " fill-opacity="1" fill-rule="evenodd"/></g></g></g><g clip-path="url(#301883a919)"><g clip-path="url(#bc2bdaa662)"><g clip-path="url(#a00f3bd7f6)"><path fill="#1096dc" d="M 236.691406 112.917969 C 240.265625 111.4375 243.84375 109.953125 247.949219 108.25 C 246.496094 110 241.363281 112.238281 236.972656 113.359375 C 236.878906 113.214844 236.785156 113.066406 236.691406 112.917969 " fill-opacity="1" fill-rule="evenodd"/></g></g></g><g clip-path="url(#aa7294714b)"><g clip-path="url(#759164683d)"><g clip-path="url(#5f7a3ff089)"><path fill="#1096dc" d="M 111.382812 222.402344 C 112.8125 221.484375 114.238281 220.566406 115.664062 219.648438 C 114.238281 220.566406 112.8125 221.484375 111.382812 222.402344 " fill-opacity="1" fill-rule="evenodd"/></g></g></g></svg>